<svg
					width="56"
					height="56"
					viewBox="0 0 56 56"
					fill="none"
					xmlns="http://www.w3.org/2000/svg"
				>
					<g id="account-circle">
						<path
							id="Vector"
							d="M28 44.8C22.1667 44.8 17.01 41.8133 14 37.3333C14.07 32.6667 23.3333 30.1 28 30.1C32.6667 30.1 41.93 32.6667 42 37.3333C38.99 41.8133 33.8333 44.8 28 44.8ZM28 11.6667C29.8565 11.6667 31.637 12.4042 32.9497 13.7169C34.2625 15.0297 35 16.8102 35 18.6667C35 20.5232 34.2625 22.3037 32.9497 23.6164C31.637 24.9292 29.8565 25.6667 28 25.6667C26.1435 25.6667 24.363 24.9292 23.0502 23.6164C21.7375 22.3037 21 20.5232 21 18.6667C21 16.8102 21.7375 15.0297 23.0502 13.7169C24.363 12.4042 26.1435 11.6667 28 11.6667ZM28 4.66667C24.9358 4.66667 21.9016 5.27021 19.0707 6.44282C16.2398 7.61543 13.6675 9.33415 11.5008 11.5008C7.12498 15.8767 4.66666 21.8116 4.66666 28C4.66666 34.1884 7.12498 40.1233 11.5008 44.4992C13.6675 46.6659 16.2398 48.3846 19.0707 49.5572C21.9016 50.7298 24.9358 51.3333 28 51.3333C34.1884 51.3333 40.1233 48.875 44.4991 44.4992C48.875 40.1233 51.3333 34.1884 51.3333 28C51.3333 15.0967 40.8333 4.66667 28 4.66667Z"
							fill="#1E1E1E"
						/>
					</g>
				</svg>