				<svg
					width="56"
					height="56"
					viewBox="0 0 56 56"
					fill="none"
					xmlns="http://www.w3.org/2000/svg"
				>
					<g id="library">
						<path
							id="Vector"
							d="M28 18.6667C29.8565 18.6667 31.637 17.9292 32.9497 16.6164C34.2625 15.3037 35 13.5232 35 11.6667C35 9.81016 34.2625 8.02968 32.9497 6.71692C31.637 5.40417 29.8565 4.66667 28 4.66667C26.1435 4.66667 24.363 5.40417 23.0503 6.71692C21.7375 8.02968 21 9.81016 21 11.6667C21 13.5232 21.7375 15.3037 23.0503 16.6164C24.363 17.9292 26.1435 18.6667 28 18.6667ZM28 26.9267C22.4933 21.8167 15.1667 18.6667 7 18.6667V44.3333C15.1667 44.3333 22.4933 47.4833 28 52.5933C33.5067 47.4833 40.8333 44.3333 49 44.3333V18.6667C40.8333 18.6667 33.5067 21.8167 28 26.9267Z"
							fill="black"
						/>
					</g>
				</svg>